<svg fill="none" height="15" viewBox="0 0 15 15" width="15" xmlns="http://www.w3.org/2000/svg"><path d="m13.5 3.5h.5v-.20711l-.1464-.14644zm-3-3 .3536-.353553-.1465-.146447h-.2071zm-4 6v-.5h-.5v.5zm0 2h-.5v.5h.5zm2 0h.5v-.5h-.5zm0 2v.5h.5v-.5zm2-1h-.5v.20711l.1464.14644zm1 1-.3536.3536.3536.3535.3536-.3535zm1-1 .3536.35355.1464-.14644v-.20711zm-10-3v-.5h-.5v.5zm0 4h-.5v.5h.5zm-.5-5.5v-3.5h-1v3.5zm11-1.5v1.5h1v-1.5zm-10.5-2.5h8v-1h-8zm7.6464-.146447 3 2.999997.7072-.7071-3-3.000003zm-8.1464.646447c0-.27614.22386-.5.5-.5v-1c-.82843 0-1.5.671573-1.5 1.5zm-1 10.5v1.5h1v-1.5zm1.5 3h10v-1h-10zm11.5-1.5v-1.5h-1v1.5zm-1.5 1.5c.8284 0 1.5-.6716 1.5-1.5h-1c0 .2761-.2239.5-.5.5zm-11.5-1.5c0 .8284.67157 1.5 1.5 1.5v-1c-.27614 0-.5-.2239-.5-.5zm8-7.5h-2.5v1h2.5zm-3 .5v2h1v-2zm.5 2.5h2v-1h-2zm1.5-.5v2h1v-2zm.5 1.5h-2.5v1h2.5zm1.5-4v3.5h1v-3.5zm.1464 3.85355 1 1.00005.7072-.7072-1-.99995zm1.7072 1.00005 1-1.00005-.7072-.7071-1 .99995zm1.1464-1.3536v-3.5h-1v3.5zm-8-3.5h-2.5v1h2.5zm-3 .5v4h1v-4zm.5 4.5h2.5v-1h-2.5z" fill="#000"/></svg>